# xmcd
#
# Track frame offsets: 
#        150
#        13585
#        27052
#        37249
#        49429
#        59122
#        69884
#        82421
#        93716
#        104258
#        115677
#        128803
#        138846
#        150714
#        162446
#        175149
#        188360
#        201221
#        212806
#        226722
#        239510
#
# Disc length: 3364 seconds
#
# Revision: 3
# Processed by: cddbd v1.5.2PL0 Copyright (c) Steve Scherf et al.
# Submitted via: ExactAudioCopy v1.0b4
#
DISCID=270d2215
DTITLE=Luiz Gonzaga - 90 Aninhos
DYEAR=2002
DGENRE=Baião
TTITLE0=Paraíba
TTITLE1=Marcha Da Petrobrás
TTITLE2=Na Hora H
TTITLE3=Cigarro De Paia
TTITLE4=Forró Do Zé Tatu
TTITLE5=Passeando Em Paris
TTITLE6=Imbalança
TTITLE7=É Pra Rir Ou Não É?
TTITLE8=Dança Do Macaco
TTITLE9=Só Vale Quem Tem
TTITLE10=Baião
TTITLE11=13 De Dezembro
TTITLE12=Zé Dantas
TTITLE13=Sabiá
TTITLE14=Baião Na Garoa
TTITLE15=Dia Dos Pais
TTITLE16=Pau-De-Arara
TTITLE17=Mara
TTITLE18=Capital Do Agreste (Caruaru)
TTITLE19=Cai No Frevo
TTITLE20=Brejeiro
EXTD=
EXTT0=
EXTT1=
EXTT2=
EXTT3=
EXTT4=
EXTT5=
EXTT6=
EXTT7=
EXTT8=
EXTT9=
EXTT10=
EXTT11=
EXTT12=
EXTT13=
EXTT14=
EXTT15=
EXTT16=
EXTT17=
EXTT18=
EXTT19=
EXTT20=
PLAYORDER=
